<svg xmlns="http://www.w3.org/2000/svg" version="1.1" xmlns:xlink="http://www.w3.org/1999/xlink" xmlns:svgjs="http://svgjs.dev/svgjs" width="2000" height="833" viewBox="0 0 2000 833"><g transform="matrix(1,0,0,1,-1.2112696095522324,0.9423298494455139)"><svg viewBox="0 0 396 165" data-background-color="#ffffff" preserveAspectRatio="xMidYMid meet" height="833" width="2000" xmlns="http://www.w3.org/2000/svg" xmlns:xlink="http://www.w3.org/1999/xlink"><g id="tight-bounds" transform="matrix(1,0,0,1,0.24008861730862918,-0.1866559725792456)"><svg viewBox="0 0 395.52 165.3733119451585" height="165.3733119451585" width="395.52"><g><svg viewBox="0 0 395.52 165.3733119451585" height="165.3733119451585" width="395.52"><g><svg viewBox="0 0 395.52 165.3733119451585" height="165.3733119451585" width="395.52"><g id="textblocktransform"><svg viewBox="0 0 395.52 165.3733119451585" height="165.3733119451585" width="395.52" id="textblock"><g><svg viewBox="0 0 395.52 165.3733119451585" height="165.3733119451585" width="395.52"><path d="M394.594 35.469C392.735 18.304 387.435 13.532 387.435 13.532 371.165-4.149 350.86-0.338 332.619 2.202 300.414 2.305 268.339 6.082 236.208 8.107 168.767 8.416 100.749 3.335 33.643 15.866 27.339 19.711-6.54 16.621 1.121 37.667 3.129 46.421 10.456 56.137 10.232 64.17 11.236 65.578 12.631 62.351 13.226 64.376 15.309 69.835 18.711 67.26 21.501 70.487 17.614 79.105 20.403 86.28 23.062 93.798 18.377 95.755 12.371 94.828 9.675 101.317 9.396 106.02 7.89 105.128 6.235 104.922 5.026 104.784 2.59 105.299 2.999 106.776 4.394 111.822-1.594 114.741 2.162 119.684-0.422 125.04 3.948 129.675 3.353 135.477 3.278 136.644 3.687 137.64 4.338 137.914 7.22 139.391 3.018 142.274 3.464 145.399 33.029 166.753 65.104 151.99 95.394 161.809 103.259 154.943 97.346 164.246 100.489 162.805 102.943 161.122 104.728 168.092 107.499 164.143 107.927 163.011 107.276 160.333 108.8 160.848 109.6 161.122 110.307 161.054 110.418 159.474 110.586 157.106 109.117 158.582 108.726 157.346 112.947 151.098 111.906 165.963 115.866 165.345 115.68 163.525 114.528 160.916 116.889 161.26 119.232 158.65 119.306 156.488 121.389 162.358 121.463 163.628 121.835 164.521 122.43 165.139 128.938 158.753 135.409 167.405 142.233 164.521 146.417 161.363 150.433 166.238 154.672 165.036 156.16 164.075 157.666 162.358 159.098 165.242 176.632 165.86 195.319 163.285 211.943 165.345 256.364 161.5 303.836 166.924 350.674 161.843 361.719 159.886 373.192 157.106 383.958 154.874 383.958 154.874 392.679 148.763 392.679 121.298S394.538 97.266 394.817 75.397C395.096 53.528 396.398 52.635 394.538 35.469Z" opacity="1" fill="#2563eb" data-fill-palette-color="tertiary"></path><g transform="matrix(1,0,0,1,55.76832,26.230666666666668)"><svg width="283.98335999999995" viewBox="0.5 -36.75 116.69 46.4" height="112.91197861182515" data-palette-color="#ffffff"><path d="M6.05 0.45L6.05 0.45Q3.65 0.45 2.48-0.03 1.3-0.5 0.9-1.28 0.5-2.05 0.5-2.9L0.5-2.9Q0.5-4 0.78-4.73 1.05-5.45 1.25-5.95L1.25-5.95Q1.95-5.45 3.05-4.98 4.15-4.5 5.25-4.5L5.25-4.5Q6.35-4.5 6.9-4.88 7.45-5.25 7.65-6.25 7.85-7.25 7.85-9.15L7.85-9.15 7.85-32.55Q7.85-33.8 8.1-34.3 8.35-34.8 9.53-34.9 10.7-35 13.55-35L13.55-35 13.55-8.05Q13.55-5.95 13.15-4.35 12.75-2.75 11.85-1.7 10.95-0.65 9.53-0.1 8.1 0.45 6.05 0.45ZM23.95 0.5L23.95 0.5Q21.95 0.5 20.45 0.03 18.95-0.45 17.97-1.83 17-3.2 16.52-5.78 16.05-8.35 16.05-12.55L16.05-12.55Q16.05-19.35 18.22-22.43 20.4-25.5 24.35-25.5L24.35-25.5Q27.05-25.5 28.77-24.43 30.5-23.35 31.32-20.58 32.15-17.8 32.15-12.75L32.15-12.75Q32.15-5.5 30.07-2.5 28 0.5 23.95 0.5ZM24.1-4.15L24.1-4.15Q24.6-4.15 25.02-4.65 25.45-5.15 25.72-6.95 26-8.75 26-12.6L26-12.6Q26-16.2 25.85-17.98 25.7-19.75 25.3-20.3 24.9-20.85 24.15-20.85L24.15-20.85Q23.6-20.85 23.15-20.28 22.7-19.7 22.45-17.93 22.2-16.15 22.2-12.6L22.2-12.6Q22.2-9.7 22.32-7.98 22.45-6.25 22.67-5.45 22.9-4.65 23.27-4.4 23.65-4.15 24.1-4.15ZM40.75 0.5L40.75 0.5Q38.75 0.5 37.25 0.08 35.75-0.35 34.9-1L34.9-1 34.9-34.25Q34.9-35.5 35.32-36.02 35.75-36.55 36.95-36.65 38.15-36.75 40.5-36.75L40.5-36.75 40.5-24.05Q41.3-24.75 42.37-25.13 43.45-25.5 44.75-25.5L44.75-25.5Q46.75-25.5 47.97-24.53 49.2-23.55 49.8-21.33 50.4-19.1 50.4-15.35L50.4-15.35Q50.4-11.1 49.82-8.22 49.25-5.35 48.25-3.63 47.25-1.9 46-1 44.75-0.1 43.4 0.2 42.05 0.5 40.75 0.5ZM41.6-4.4L41.6-4.4Q41.95-4.4 42.37-4.78 42.8-5.15 43.17-6.2 43.55-7.25 43.8-9.22 44.05-11.2 44.05-14.35L44.05-14.35Q44.05-16.65 43.82-18 43.6-19.35 43.2-19.93 42.8-20.5 42.15-20.5L42.15-20.5Q41.75-20.5 41.32-20.35 40.9-20.2 40.5-19.8L40.5-19.8 40.5-4.8Q40.7-4.6 40.97-4.5 41.25-4.4 41.6-4.4ZM58.74 0.5L58.74 0.5Q55.39 0.5 53.79-0.53 52.19-1.55 52.19-2.85L52.19-2.85Q52.19-3.7 52.49-4.83 52.79-5.95 53.44-6.9L53.44-6.9Q54.24-6.2 55.49-5.73 56.74-5.25 58.09-5.25L58.09-5.25Q60.14-5.25 60.94-6.3 61.74-7.35 61.74-9.1L61.74-9.1Q61.74-10.4 61.27-11.55 60.79-12.7 59.49-14.4L59.49-14.4 54.94-20.5Q53.24-22.8 52.69-24.5 52.14-26.2 52.14-27.85L52.14-27.85Q52.14-31.25 54.39-33.38 56.64-35.5 61.04-35.5L61.04-35.5Q64.84-35.5 66.34-34.75 67.84-34 67.84-32.7L67.84-32.7Q67.84-32 67.54-31.18 67.24-30.35 66.54-29.55L66.54-29.55Q66.14-29.85 64.89-30.2 63.64-30.55 62.19-30.55L62.19-30.55Q60.34-30.55 59.29-29.93 58.24-29.3 58.24-28L58.24-28Q58.24-26.85 58.67-25.88 59.09-24.9 60.04-23.55L60.04-23.55 64.84-17.4Q66.64-15.1 67.24-13.25 67.84-11.4 67.84-9.25L67.84-9.25Q67.84-6.75 67.07-4.53 66.29-2.3 64.34-0.9 62.39 0.5 58.74 0.5ZM71.64 9.65L71.64 9.65Q68.89 9.65 67.97 8.93 67.04 8.2 67.04 7.15L67.04 7.15Q67.04 6.4 67.22 5.53 67.39 4.65 67.74 4.1L67.74 4.1Q68.19 4.45 69.12 4.7 70.04 4.95 71.14 4.95L71.14 4.95Q72.04 4.95 72.72 4.1 73.39 3.25 73.64 0.8L73.64 0.8 68.19-23.55Q68.04-24.3 68.19-24.6 68.34-24.9 69.56-24.95 70.79-25 73.69-25L73.69-25 75.14-16.35Q75.44-14.7 75.67-12.95 75.89-11.2 76.04-9.68 76.19-8.15 76.29-7.2 76.39-6.25 76.39-6.25L76.39-6.25Q76.39-6.25 76.47-7.2 76.54-8.15 76.69-9.65 76.84-11.15 77.04-12.93 77.24-14.7 77.44-16.35L77.44-16.35 78.39-23.45Q78.49-24.25 78.79-24.55 79.09-24.85 80.31-24.93 81.54-25 84.34-25L84.34-25 78.74 1.15Q78.04 4.4 77.17 6.28 76.29 8.15 74.99 8.9 73.69 9.65 71.64 9.65ZM86.24 0L86.24 0 86.24-23.85Q87.04-24.25 88.39-24.63 89.74-25 91.24-25.25 92.74-25.5 93.99-25.5L93.99-25.5Q96.54-25.5 98.11-24.93 99.69-24.35 100.44-22.95 101.19-21.55 101.19-19.05L101.19-19.05 101.19-1Q101.19-0.5 100.91-0.3 100.64-0.1 99.44-0.05 98.24 0 95.39 0L95.39 0 95.39-17.3Q95.39-19.25 95.09-19.98 94.79-20.7 93.74-20.7L93.74-20.7Q93.24-20.7 92.74-20.55 92.24-20.4 91.84-20.1L91.84-20.1 91.84-1Q91.84-0.5 91.59-0.3 91.34-0.1 90.16-0.05 88.99 0 86.24 0ZM111.54 0.5L111.54 0.5Q109.59 0.5 108.19 0 106.79-0.5 105.89-1.85 104.98-3.2 104.56-5.63 104.14-8.05 104.14-11.95L104.14-11.95Q104.14-16.45 104.94-19.15 105.73-21.85 107.04-23.23 108.34-24.6 109.91-25.05 111.48-25.5 113.04-25.5L113.04-25.5Q114.89-25.5 116.04-24.83 117.19-24.15 117.19-22.95L117.19-22.95Q117.19-22.4 117.09-21.63 116.99-20.85 116.69-19.95L116.69-19.95Q116.09-20.2 115.21-20.4 114.34-20.6 113.54-20.6L113.54-20.6Q112.89-20.6 112.23-20.33 111.59-20.05 111.09-19.18 110.59-18.3 110.29-16.6 109.98-14.9 109.98-12.05L109.98-12.05Q109.98-9.9 110.14-8.43 110.29-6.95 110.66-6.08 111.04-5.2 111.69-4.83 112.34-4.45 113.34-4.45L113.34-4.45Q114.14-4.45 115.04-4.65 115.94-4.85 116.54-5.15L116.54-5.15Q116.79-4.2 116.89-3.53 116.99-2.85 116.99-2.2L116.99-2.2Q116.99-0.95 115.46-0.23 113.94 0.5 111.54 0.5Z" opacity="1" transform="matrix(1,0,0,1,0,0)" fill="#ffffff" class="wordmark-text-0" data-fill-palette-color="quaternary" id="text-0"></path></svg></g></svg></g></svg></g></svg></g><g></g></svg></g><defs></defs></svg><rect width="395.52" height="165.3733119451585" fill="none" stroke="none" visibility="hidden"></rect></g></svg></g></svg>